<?xml version="1.0" encoding="utf-8"?>
<!-- Generator: Adobe Illustrator 16.0.4, SVG Export Plug-In . SVG Version: 6.00 Build 0)  -->
<!DOCTYPE svg PUBLIC "-//W3C//DTD SVG 1.1//EN" "http://www.w3.org/Graphics/SVG/1.1/DTD/svg11.dtd">
<svg version="1.1" id="Layer_1" xmlns="http://www.w3.org/2000/svg" xmlns:xlink="http://www.w3.org/1999/xlink" x="0px" y="0px"
	 width="89.002px" height="355px" viewBox="0 0 89.002 355" enable-background="new 0 0 89.002 355" xml:space="preserve">
<symbol  id="email" viewBox="-21 -21 42 42">
	<path fill="#25272C" d="M21,0c0-11.598-9.402-21-21-21c-11.598,0-21,9.402-21,21s9.402,21,21,21C11.598,21,21,11.598,21,0z"/>
	<g id="Forma_1_9_">
		<g>
			<path fill="#E9EAEB" d="M-10.965,8.188V-8.188h21.931V8.188H-10.965z M8.995,6.974L0-1.925l-8.995,8.898H8.995z M-9.887,6.239
				l6.304-6.235l-6.304-6.238V6.239z M-9-6.974l6.234,6.167L0-3.542l2.766,2.735L9-6.974H-9z M9.887-6.234L3.583,0.002l6.304,6.237
				V-6.234z"/>
		</g>
	</g>
</symbol>
<symbol  id="email:hover" viewBox="-21 -21 42 42.001">
	<path fill="#E9EAEB" d="M21,0c0-11.598-9.402-21.001-21-21.001c-11.598,0-21,9.403-21,21.001s9.402,21.001,21,21.001
		C11.599,21.001,21,11.598,21,0z"/>
	<g id="Forma_1_9_">
		<g>
			<path fill="#25272C" d="M-10.964,8.188V-8.188h21.93V8.188H-10.964z M8.996,6.974L0-1.925l-8.994,8.898H8.996z M-9.886,6.239
				l6.304-6.235l-6.304-6.238V6.239z M-9-6.974l6.235,6.167L0-3.542l2.767,2.735l6.234-6.167H-9z M9.888-6.234L3.583,0.002
				l6.305,6.237V-6.234z"/>
		</g>
	</g>
</symbol>
<symbol  id="facebook" viewBox="-21 -21 42 42">
	<path fill="#25272C" d="M21,0c0-11.598-9.402-21-21-21s-21,9.402-21,21s9.402,21,21,21S21,11.598,21,0z"/>
	<g id="Forma_1_9_">
		<g>
			<path fill="#E9EAEB" d="M1.018,2.822l0.004,1.414c0,0.734,0.05,1.129,1.102,1.129h1.948v2.823H1.28
				c-2.704,0-3.327-1.401-3.327-3.704l0.002-1.662h-2.053V0h2.053v-8.188h3.062L1.02,0l2.778,0.002l0.298,2.82H1.018z"/>
		</g>
	</g>
</symbol>
<symbol  id="facebook:hover" viewBox="-21 -21 42 42">
	<path fill="#E9EAEB" d="M21,0c0-11.599-9.402-21-21-21c-11.597,0-21,9.401-21,21s9.402,21,21,21C11.598,21,21,11.599,21,0z"/>
	<g id="Forma_1_9_">
		<g>
			<path fill="#25272C" d="M1.018,2.823l0.004,1.413c0,0.734,0.05,1.129,1.102,1.129h1.947v2.823h-2.79
				c-2.705,0-3.328-1.4-3.328-3.703l0.003-1.662l-2.052-0.001V0h2.052v-8.188h3.062L1.02,0l2.779,0.002l0.297,2.821H1.018z"/>
		</g>
	</g>
</symbol>
<symbol  id="github" viewBox="-21 -21 42 42">
	<path fill="#25272C" d="M21,0c0-11.599-9.402-21.001-21-21.001c-11.598,0-21,9.402-21,21.001c0,11.598,9.402,20.999,21,20.999
		C11.598,20.999,21,11.598,21,0z"/>
	<g id="Forma_1_9_">
		<g>
			<path fill="#E9EAEB" d="M-2.469-5.449c0.038-0.048,0.076-0.093,0.135-0.167c0.083,0.076,0.14,0.13,0.197,0.181
				c-0.047,0.041-0.103,0.121-0.138,0.112C-2.345-5.341-2.405-5.404-2.469-5.449z M8.347,0.612c-0.474,4.854-5,8.337-9.776,7.433
				C-4.881,7.391-7.19,5.304-8.076,1.903C-8.964-1.508-7.934-4.423-5.26-6.729c0.741-0.638,1.598-1.092,2.522-1.409
				c0.349-0.119,0.64-0.002,0.652,0.287c0.024,0.539,0.008,1.08,0.008,1.553c-0.416,0-0.799-0.025-1.179,0.005
				c-0.777,0.065-1.375,0.407-1.685,1.169C-5.137-4.639-5.434-4.227-5.89-3.938c-0.109,0.069-0.166,0.221-0.248,0.334
				c0.145,0.039,0.288,0.078,0.433,0.117c0.016,0.002,0.033-0.008,0.051-0.01c0.538-0.098,0.9-0.43,1.182-0.877
				c0.526-0.836,1.318-1.098,2.238-0.74c0.073,0.027,0.162,0.083,0.189,0.148c0.144,0.34,0.27,0.686,0.411,1.051
				c-0.164,0.029-0.328,0.052-0.491,0.083C-3.064-3.652-3.91-3.31-4.546-2.547C-5.365-1.565-5.804,0.998-4.59,2.354
				c0.055,0.062,0.078,0.192,0.057,0.273C-4.69,3.191-4.675,3.75-4.522,4.311C-4.4,4.754-4.361,4.776-3.902,4.687
				c0.592-0.116,1.106-0.409,1.62-0.711c0.114-0.067,0.281-0.106,0.404-0.076c1.096,0.253,2.2,0.326,3.297,0.078
				c0.498-0.114,0.888-0.053,1.308,0.229c0.435,0.292,0.928,0.48,1.467,0.511c0.152,0.01,0.235-0.037,0.284-0.193
				C4.681,3.9,4.731,3.278,4.558,2.642C4.536,2.562,4.539,2.439,4.585,2.385c0.649-0.771,0.823-1.668,0.762-2.646
				C5.226-2.186,4.273-3.344,2.438-3.766c-0.276-0.062-0.56-0.103-0.878-0.16c0.536-0.58,0.551-1.275,0.541-1.979
				c-0.01-0.613-0.01-1.225-0.005-1.836c0.001-0.329,0.208-0.496,0.53-0.438c0.085,0.014,0.167,0.05,0.249,0.08
				C6.471-6.796,8.72-3.215,8.347,0.612z M-4.345-5.041c0.039-0.074,0.099-0.139,0.181-0.242c0.055,0.09,0.114,0.158,0.104,0.172
				c-0.051,0.068-0.122,0.123-0.191,0.174C-4.256-4.934-4.353-5.025-4.345-5.041z M-1.636-3.913
				c0.007-0.001,0.017-0.003,0.025-0.005c0.007,0,0.013-0.012-0.019,0.023C-1.632-3.901-1.634-3.906-1.636-3.913z M-3.791-5.408
				c0.075-0.047,0.146-0.104,0.227-0.13c0.029-0.009,0.083,0.058,0.18,0.13c-0.133,0.051-0.212,0.096-0.295,0.105
				C-3.712-5.298-3.753-5.371-3.791-5.408z M-3.11-5.525C-3.099-5.575-3-5.638-2.941-5.637c0.057,0.002,0.111,0.076,0.168,0.119
				c-0.051,0.047-0.103,0.094-0.26,0.234C-3.068-5.382-3.124-5.461-3.11-5.525z"/>
		</g>
	</g>
</symbol>
<symbol  id="github:hover" viewBox="-21 -21 42 42">
	<path fill="#E9EAEB" d="M21,0c0-11.599-9.402-21.001-21-21.001c-11.598,0-21,9.402-21,21.001c0,11.598,9.402,20.999,21,20.999
		C11.599,20.999,21,11.598,21,0z"/>
	<g id="Forma_1_9_">
		<g>
			<path fill="#25272C" d="M-2.468-5.449c0.038-0.048,0.076-0.093,0.135-0.167c0.083,0.076,0.14,0.13,0.196,0.181
				c-0.047,0.041-0.102,0.121-0.138,0.112C-2.344-5.341-2.404-5.404-2.468-5.449z M8.348,0.612c-0.474,4.854-5,8.337-9.776,7.433
				C-4.88,7.391-7.189,5.304-8.075,1.903C-8.963-1.508-7.933-4.423-5.26-6.729c0.741-0.638,1.598-1.092,2.523-1.409
				c0.349-0.119,0.64-0.002,0.652,0.287c0.024,0.539,0.008,1.08,0.008,1.553c-0.416,0-0.799-0.025-1.179,0.005
				C-4.033-6.229-4.632-5.887-4.94-5.125c-0.195,0.486-0.493,0.898-0.949,1.188c-0.109,0.069-0.166,0.221-0.248,0.334
				c0.144,0.039,0.288,0.078,0.433,0.117c0.015,0.002,0.033-0.008,0.05-0.01c0.539-0.098,0.9-0.43,1.182-0.877
				c0.527-0.836,1.318-1.098,2.238-0.74c0.073,0.027,0.162,0.083,0.189,0.148c0.144,0.34,0.27,0.686,0.411,1.051
				c-0.164,0.029-0.327,0.052-0.491,0.083c-0.938,0.179-1.784,0.521-2.42,1.284c-0.819,0.981-1.259,3.545-0.044,4.901
				c0.055,0.062,0.078,0.192,0.057,0.273C-4.689,3.191-4.674,3.75-4.521,4.311C-4.4,4.754-4.36,4.776-3.901,4.687
				c0.592-0.116,1.107-0.409,1.62-0.711c0.114-0.067,0.28-0.106,0.404-0.076c1.095,0.253,2.199,0.326,3.297,0.078
				c0.498-0.114,0.888-0.053,1.308,0.229c0.435,0.292,0.929,0.48,1.467,0.511C4.348,4.727,4.43,4.68,4.479,4.523
				C4.681,3.9,4.732,3.278,4.559,2.642C4.537,2.562,4.54,2.439,4.586,2.385c0.649-0.771,0.823-1.668,0.762-2.646
				C5.227-2.186,4.274-3.344,2.439-3.766c-0.276-0.062-0.56-0.103-0.878-0.16c0.536-0.58,0.551-1.275,0.541-1.979
				C2.092-6.518,2.092-7.129,2.097-7.74c0.001-0.329,0.208-0.496,0.53-0.438c0.084,0.014,0.167,0.05,0.249,0.08
				C6.472-6.796,8.721-3.215,8.348,0.612z M-1.636-3.913c0.008-0.001,0.017-0.003,0.026-0.005c0.007,0,0.013-0.012-0.019,0.023
				C-1.631-3.901-1.633-3.906-1.636-3.913z M-3.79-5.408c0.075-0.047,0.146-0.104,0.227-0.13c0.029-0.009,0.084,0.058,0.18,0.13
				c-0.133,0.051-0.213,0.096-0.295,0.105C-3.711-5.298-3.752-5.371-3.79-5.408z M-4.344-5.041c0.039-0.074,0.099-0.139,0.181-0.242
				c0.055,0.09,0.113,0.158,0.103,0.172C-4.111-5.043-4.181-4.988-4.25-4.938C-4.255-4.934-4.352-5.025-4.344-5.041z M-3.109-5.525
				c0.012-0.05,0.11-0.112,0.169-0.111c0.057,0.002,0.111,0.076,0.167,0.119c-0.051,0.047-0.102,0.094-0.26,0.234
				C-3.067-5.382-3.124-5.461-3.109-5.525z"/>
		</g>
	</g>
</symbol>
<symbol  id="instagram" viewBox="-21 -21 42 42.001">
	<path fill="#25272C" d="M21,0c0-11.598-9.402-21.001-21-21.001c-11.598,0-21,9.403-21,21.001s9.402,21.001,21,21.001
		C11.598,21.001,21,11.598,21,0z"/>
	<g id="Forma_1_9_">
		<g>
			<path fill="#E9EAEB" d="M-0.104-4.217c0.019,0,0.052,0.002,0.079,0.003c-0.005,0.001-0.011,0.001-0.017,0.001
				C-0.067-4.215-0.079-4.217-0.104-4.217z M6.124,8.188H-6.125c-1.14,0-2.065-0.925-2.065-2.064V-6.124
				c0-1.141,0.925-2.064,2.065-2.064H6.124c1.141,0,2.066,0.924,2.066,2.064V6.124C8.189,7.264,7.264,8.188,6.124,8.188z
				 M0.02,1.979c1.902,0,2.066-2.065,2.066-2.065S2.145-2.152,0.02-2.152s-2.065,2.065-2.065,2.065S-1.881,1.979,0.02,1.979z
				 M6.285-5.252c0-0.57-0.531-1.033-1.102-1.033H-5.144c-0.57,0-1.141,0.463-1.141,1.033v5.165c0,0.569,0.571,1.039,1.141,1.039
				c0,0,0.261,0,0.584,0c0.041,0,0.078-0.004,0.115-0.011c0.218-0.041,0.357-0.199,0.372-0.4c0.002-0.033,0.001-0.069-0.004-0.104
				c-0.002-0.025,0.054-0.051,0.051-0.074C-4.042,0.215-4,0.065-4-0.086v-0.001C-4-2.342-2.247-4.174,0-4.213
				c-0.006,0-0.017,0-0.025-0.001c0.017-0.001,0.033-0.003,0.053-0.003c2.28,0,4.127,1.85,4.127,4.13
				c0,0.151-0.015,0.302-0.032,0.45C4.12,0.387,4.12,0.412,4.117,0.436C4.112,0.472,4.11,0.508,4.113,0.541
				c0.014,0.201,0.154,0.359,0.372,0.4C4.521,0.948,4.559,0.952,4.6,0.952h0.583c0.571,0,1.102-0.47,1.102-1.04V-5.252z M6.285,4.27
				c0-0.57-0.463-1.033-1.034-1.033H4.27c-0.57,0-1.033,0.463-1.033,1.033v0.982c0,0.57,0.463,1.032,1.033,1.032h0.981
				c0.57,0,1.034-0.462,1.034-1.032V4.27z"/>
		</g>
	</g>
</symbol>
<symbol  id="instagram:hover" viewBox="-21 -21 42 42.001">
	<path fill="#E9EAEB" d="M21,0c0-11.598-9.402-21.001-21-21.001c-11.598,0-21,9.403-21,21.001s9.402,21.001,21,21.001
		C11.599,21.001,21,11.598,21,0z"/>
	<g id="Forma_1_9_">
		<g>
			<path fill="#25272C" d="M6.124,8.188H-6.124c-1.14,0-2.065-0.925-2.065-2.064V-6.124c0-1.141,0.925-2.064,2.065-2.064H6.124
				c1.141,0,2.066,0.924,2.066,2.064V6.124C8.19,7.264,7.265,8.188,6.124,8.188z M0.021,1.979c1.902,0,2.066-2.065,2.066-2.065
				s0.059-2.065-2.066-2.065s-2.065,2.065-2.065,2.065S-1.882,1.979,0.021,1.979z M6.286-5.252c0-0.57-0.531-1.033-1.102-1.033
				H-5.144c-0.57,0-1.141,0.463-1.141,1.033v5.165c0,0.569,0.571,1.039,1.141,1.039c0,0,0.261,0,0.584,0
				c0.04,0,0.078-0.004,0.115-0.011c0.218-0.041,0.358-0.199,0.372-0.4c0.002-0.034,0.002-0.069-0.003-0.104
				c-0.003-0.025,0.054-0.051,0.051-0.074c-0.017-0.148,0.026-0.298,0.026-0.449v-0.001c0-2.255,1.753-4.087,3.999-4.126
				c-0.006,0-0.017,0-0.025-0.001c0.017-0.001,0.033-0.003,0.053-0.003c2.28,0,4.127,1.849,4.127,4.13
				c0,0.151-0.015,0.302-0.032,0.45C4.12,0.387,4.121,0.412,4.118,0.436C4.112,0.472,4.111,0.507,4.113,0.541
				c0.016,0.201,0.155,0.359,0.373,0.4C4.521,0.948,4.56,0.952,4.599,0.952h0.584c0.571,0,1.102-0.47,1.102-1.04V-5.252z
				 M6.286,4.27c0-0.57-0.463-1.033-1.033-1.033H4.27c-0.57,0-1.032,0.463-1.032,1.033v0.982c0,0.57,0.462,1.032,1.032,1.032h0.983
				c0.569,0,1.033-0.462,1.033-1.032V4.27z M-0.104-4.217c0.019,0,0.052,0.002,0.079,0.003C-0.03-4.213-0.036-4.213-0.042-4.213
				C-0.066-4.215-0.079-4.217-0.104-4.217z"/>
		</g>
	</g>
</symbol>
<symbol  id="linkedin" viewBox="-21 -21 42 42">
	<path fill="#25272C" d="M21,0.001c0-11.599-9.402-21-21-21c-11.598,0-21,9.401-21,21c0,11.598,9.402,21,21,21
		C11.598,21.001,21,11.599,21,0.001z"/>
	<g id="Forma_1_9_">
		<g>
			<path fill="#E9EAEB" d="M-8.162-8h3.63V2.735h-3.63V-8z M-6.321,8.001c-1.243,0-2.056-0.815-2.056-1.886
				c0-1.051,0.788-1.89,2.007-1.89h0.024c1.266,0,2.054,0.839,2.054,1.89C-4.314,7.186-5.08,8.001-6.321,8.001z M4.384,2.992
				c-1.93,0-2.791-1.062-3.274-1.805V1.151H1.086C1.093,1.163,1.104,1.176,1.11,1.188v1.548h-3.632
				C-2.477,1.793-2.515-6.647-2.521-8h3.632v5.912c0,0.326,0.024,0.652,0.119,0.885c0.264,0.654,0.86,1.329,1.863,1.329
				c1.315,0,1.84-1.001,1.84-2.47V-8h3.443v7.705C7.877,1.926,6.34,2.992,4.384,2.992z"/>
		</g>
	</g>
</symbol>
<symbol  id="linkedin:hover" viewBox="-21 -21 42 42">
	<path fill="#E9EAEB" d="M21,0.001c0-11.599-9.402-21-21-21c-11.598,0-21,9.401-21,21c0,11.598,9.402,21,21,21
		C11.599,21.001,21,11.599,21,0.001z"/>
	<g id="Forma_1_9_">
		<g>
			<path fill="#25272C" d="M4.384,2.992c-1.928,0-2.791-1.062-3.272-1.805V1.151H1.087c0.008,0.012,0.017,0.024,0.024,0.036v1.548
				h-3.633C-2.476,1.793-2.514-6.647-2.521-8h3.632v5.912c0,0.326,0.024,0.652,0.12,0.885c0.263,0.654,0.86,1.329,1.863,1.329
				c1.315,0,1.84-1.001,1.84-2.47V-8h3.442v7.707C7.876,1.926,6.34,2.992,4.384,2.992z M-8.161-8h3.631V2.735h-3.631V-8z
				 M-6.321,8.001c-1.243,0-2.055-0.815-2.055-1.886c0-1.051,0.789-1.89,2.008-1.89h0.023c1.268,0,2.056,0.839,2.056,1.89
				C-4.314,7.186-5.078,8.001-6.321,8.001z"/>
		</g>
	</g>
</symbol>
<symbol  id="location" viewBox="-8.5 -12.5 17 25">
	<g id="Forma_1_9_">
		<g>
			<path fill="#B9B9B9" d="M0,12.5c-4.687,0-8.5-4.135-8.5-9.215c0-4.965,7.901-15.028,8.237-15.453L0-12.5l0.262,0.332
				C0.599-11.743,8.5-1.68,8.5,3.285C8.5,8.365,4.688,12.5,0,12.5z M0-11.342c-1.389,1.813-7.81,10.424-7.81,14.627
				c0,4.668,3.503,8.467,7.81,8.467c4.306,0,7.809-3.799,7.809-8.467C7.81-0.918,1.39-9.528,0-11.342z M0,7.083
				c-1.932,0-3.504-1.704-3.504-3.798c0-2.096,1.572-3.799,3.504-3.799c1.932,0,3.503,1.703,3.503,3.799
				C3.504,5.379,1.933,7.083,0,7.083z M0,0.234c-1.551,0-2.813,1.369-2.813,3.051S-1.551,6.334,0,6.334
				c1.551,0,2.812-1.368,2.812-3.049C2.813,1.603,1.551,0.234,0,0.234z"/>
		</g>
	</g>
</symbol>
<symbol  id="tumblr" viewBox="-21 -21 42 42">
	<path fill="#25272C" d="M21,0.001c0-11.599-9.402-21-21-21c-11.598,0-21,9.401-21,21c0,11.598,9.402,21,21,21
		C11.598,21.001,21,11.599,21,0.001z"/>
	<g id="Forma_1_9_">
		<g>
			<path fill="#E9EAEB" d="M3.219-4.758c-0.818-0.24-1.505-0.08-2.059,0.445C1.108-4.23,1.028-4.127,1.001-4.021
				C0.925-3.598,0.873-3.152,0.873-2.729v4.484h3.662v2.873H0.872v3.561h-2.297C-1.478,8.057-1.505,7.9-1.505,7.741
				C-1.53,7.663-1.557,7.607-1.557,7.529c-0.236-1.318-0.923-2.24-2.085-2.742C-3.984,4.629-4.3,4.604-4.643,4.629V1.756h1.687
				c0.028-4.037,0.028-6.119,0.028-6.225v-0.24c0.213-1.765,1.135-2.819,2.77-3.215c0.659-0.186,1.37-0.265,2.083-0.265
				c0.922,0.027,1.819,0.186,2.717,0.476v3.376C4.117-4.496,3.638-4.628,3.219-4.758z"/>
		</g>
	</g>
</symbol>
<symbol  id="tumblr:hover" viewBox="-21 -21 42 42">
	<path fill="#E9EAEB" d="M21,0.001c0-11.599-9.402-21-21-21c-11.598,0-21,9.401-21,21c0,11.598,9.402,21,21,21
		C11.599,21.001,21,11.599,21,0.001z"/>
	<g id="Forma_1_9_">
		<g>
			<path fill="#25272C" d="M3.22-4.758c-0.818-0.24-1.505-0.08-2.059,0.445C1.108-4.23,1.028-4.127,1.001-4.021
				C0.925-3.598,0.874-3.152,0.874-2.729v4.484h3.662v2.873H0.872v3.561h-2.297C-1.478,8.057-1.504,7.9-1.504,7.741
				C-1.53,7.663-1.556,7.607-1.556,7.529c-0.236-1.318-0.923-2.24-2.085-2.742c-0.343-0.158-0.658-0.183-1.001-0.158V1.756h1.687
				c0.028-4.037,0.028-6.119,0.028-6.225v-0.24c0.213-1.765,1.135-2.819,2.77-3.215c0.659-0.186,1.37-0.265,2.083-0.265
				c0.922,0.027,1.819,0.186,2.717,0.476v3.376C4.118-4.496,3.639-4.628,3.22-4.758z"/>
		</g>
	</g>
</symbol>
<symbol  id="twitter" viewBox="-21 -21 42 42.001">
	<path fill="#25272C" d="M21,0c0-11.598-9.402-21.001-21-21.001c-11.598,0-21,9.403-21,21.001s9.402,21.001,21,21.001
		C11.598,21.001,21,11.598,21,0z"/>
	<g id="Forma_1_9_">
		<g>
			<path fill="#E9EAEB" d="M10.079,6.251C9.336,5.923,8.541,5.699,7.704,5.599c0.854,0.513,1.508,1.323,1.818,2.288
				c-0.8-0.475-1.686-0.819-2.628-1.004C6.142,7.688,5.067,8.188,3.877,8.188c-2.284,0-4.136-1.852-4.136-4.134
				c0-0.324,0.037-0.641,0.107-0.943c-3.436,0.172-6.483,1.82-8.522,4.321c-0.357-0.608-0.56-1.319-0.56-2.079
				c0-1.436,0.73-2.699,1.839-3.44c-0.678,0.022-1.314,0.209-1.873,0.519V2.381c0-2.004,1.425-3.676,3.316-4.057
				C-6.297-1.769-6.662-1.82-7.04-1.82c-0.267,0-0.525,0.026-0.779,0.075c0.527-1.644,2.054-2.839,3.863-2.873
				c-1.415-1.108-3.199-1.769-5.135-1.769c-0.333,0-0.663,0.02-0.987,0.057c1.831-1.173,4.003-1.858,6.339-1.858
				c7.605,0,11.766,6.301,11.766,11.767L8.012,4.112C8.823,4.695,9.525,5.423,10.079,6.251z"/>
		</g>
	</g>
</symbol>
<symbol  id="twitter:hover" viewBox="-21 -21 42 42.001">
	<path fill="#E9EAEB" d="M21,0c0-11.598-9.402-21.001-21-21.001c-11.598,0-21,9.403-21,21.001s9.402,21.001,21,21.001
		C11.599,21.001,21,11.598,21,0z"/>
	<g id="Forma_1_9_">
		<g>
			<path fill="#25272C" d="M10.079,6.251C9.338,5.923,8.541,5.699,7.704,5.599c0.855,0.513,1.508,1.323,1.818,2.288
				C8.723,7.412,7.836,7.067,6.895,6.883C6.142,7.688,5.067,8.188,3.878,8.188c-2.284,0-4.135-1.852-4.135-4.134
				c0-0.324,0.036-0.641,0.106-0.943c-3.437,0.172-6.483,1.82-8.523,4.321C-9.03,6.824-9.232,6.113-9.232,5.354
				c0-1.436,0.73-2.699,1.839-3.44c-0.679,0.022-1.315,0.209-1.874,0.519V2.381c0-2.004,1.426-3.676,3.316-4.057
				C-6.297-1.769-6.662-1.82-7.04-1.82c-0.267,0-0.525,0.026-0.779,0.075c0.527-1.644,2.054-2.839,3.864-2.873
				c-1.415-1.108-3.2-1.769-5.136-1.769c-0.333,0-0.663,0.02-0.987,0.057c1.832-1.173,4.003-1.858,6.339-1.858
				c7.605,0,11.767,6.301,11.767,11.767L8.012,4.112C8.823,4.695,9.525,5.423,10.079,6.251z"/>
		</g>
	</g>
</symbol>
<use xlink:href="#email"  width="42" height="42" x="-21" y="-21" transform="matrix(1 0 0 -1 21 48.6528)" overflow="visible"/>
<use xlink:href="#email:hover"  width="42" height="42.001" x="-21" y="-21" transform="matrix(1 0 0 -1 68 48.6528)" overflow="visible"/>
<use xlink:href="#twitter"  width="42" height="42.001" x="-21" y="-21" transform="matrix(1 0 0 -1 21.0005 95.6538)" overflow="visible"/>
<use xlink:href="#twitter:hover"  width="42" height="42.001" x="-21" y="-21" transform="matrix(1 0 0 -1 68.001 95.6548)" overflow="visible"/>
<use xlink:href="#instagram"  width="42" height="42.001" x="-21" y="-21" transform="matrix(1 0 0 -1 21.0005 142.6558)" overflow="visible"/>
<use xlink:href="#instagram:hover"  width="42" height="42.001" x="-21" y="-21" transform="matrix(1 0 0 -1 68.001 142.6567)" overflow="visible"/>
<use xlink:href="#facebook"  width="42" height="42" x="-21" y="-21" transform="matrix(1 0 0 -1 21 189.6572)" overflow="visible"/>
<use xlink:href="#facebook:hover"  width="42" height="42" x="-21" y="-21" transform="matrix(1 0 0 -1 68.001 189.6572)" overflow="visible"/>
<use xlink:href="#tumblr"  width="42" height="42" x="-21" y="-21" transform="matrix(1 0 0 -1 21 236.6577)" overflow="visible"/>
<use xlink:href="#tumblr:hover"  width="42" height="42" x="-21" y="-21" transform="matrix(1 0 0 -1 68.002 236.6577)" overflow="visible"/>
<use xlink:href="#github"  width="42" height="42" x="-21" y="-21" transform="matrix(1 0 0 -1 21 283.6567)" overflow="visible"/>
<use xlink:href="#github:hover"  width="42" height="42" x="-21" y="-21" transform="matrix(1 0 0 -1 68.002 283.6567)" overflow="visible"/>
<use xlink:href="#linkedin"  width="42" height="42" x="-21" y="-21" transform="matrix(1 0 0 -1 21.0005 330.6577)" overflow="visible"/>
<use xlink:href="#linkedin:hover"  width="42" height="42" x="-21" y="-21" transform="matrix(1 0 0 -1 68.002 330.6577)" overflow="visible"/>
<use xlink:href="#location"  width="17" height="25" x="-8.5" y="-12.5" transform="matrix(1 0 0 -1 44.501 15.1528)" overflow="visible"/>
<g>
</g>
<g>
</g>
<g>
</g>
<g>
</g>
<g>
</g>
<g>
</g>
<g>
</g>
<g>
</g>
<g>
</g>
<g>
</g>
<g>
</g>
<g>
</g>
<g>
</g>
<g>
</g>
<g>
</g>
<g>
</g>
<g>
</g>
<g>
</g>
<g>
</g>
<g>
</g>
<g>
</g>
<g>
</g>
<g>
</g>
<g>
</g>
<g>
</g>
<g>
</g>
<g>
</g>
<g>
</g>
<g>
</g>
<g>
</g>
<g>
</g>
<g>
</g>
<g>
</g>
<g>
</g>
<g>
</g>
<g>
</g>
<g>
</g>
<g>
</g>
<g>
</g>
<g>
</g>
<g>
</g>
<g>
</g>
<g>
</g>
<g>
</g>
<g>
</g>
</svg>
